<svg id="Layer_1" data-name="Layer 1" xmlns="http://www.w3.org/2000/svg" viewBox="0 0 700 477"><title>Party_Silhoutte</title><path d="M2137,1122a12,12,0,0,1-7.67,2,50.45,50.45,0,0,0-5.5,0c-.72,0-1.74-.42-1.84.94s1.08.91,1.7,1.2c2.09,1,4.24,1.83,6.3,2.88.69.35,1.16,1.14,1.74,1.73-1.05-.27-1.52,1.38-2.79.72-1.79-.94-4.1-.28-5.75-1.79-1.36-1.23-2.53-.86-3.79.35-2.81,2.71-5.21,5.88-8.72,7.85-.84.47-1.87.77-2.47,1.21-1.88,1.39-4.47.13-6.17,2.22a22.71,22.71,0,0,1-5.19,4.27c-4,2.66-7.12,6.26-10.5,9.59-.55.54-1.3,1.29-1.28,1.93.11,3.38-2.08,4.76-4.67,6-1.53.76-2.79,2.1-4.35,2.79a3,3,0,0,0-2.1,2.86,5,5,0,0,1-1,2.56c-1.73,2.22-3.54,4.07-6.92,3.76-2.11-.19-4.51-1-6.67.76-.44.36-2.4-.59-3.23-1.38-.66-.63-2.83-.92-1.43-2.78.1-.14-.34-.68-.53-1a66,66,0,0,0-3.61-6.49c-.66-1-1.37-2.38-3-2.2-1.86.2-2.41-1.55-3.43-2.5-.45-.43-.29-1.51-.41-2.3-.82.69-2,1.22-2.41,2.1-1.59,3.67-3.09,7.37-4.41,11.17-2.49,7.17-1.71,14.45-1.87,21.71,0,1.6,1.16,2.57,2.4,1.72a4.41,4.41,0,0,1,3.15-.89c2.14.25,4.08-.42,6.1-1s4.26.67,6.09-1c.18-.16.65,0,1,0,4.19-.33,8.54-.11,12.54-1.17,3.54-.94,7.15-.07,10.48-1.18s6.84-.26,10.22-.68c1.06-.13,2-.76,3.1-1,2.79-.5,5.35.5,7.88,1.46a41.46,41.46,0,0,1,3.77,1.75c4.17,2,6.13,6,7.06,9.94a22.23,22.23,0,0,1-.91,12.48,49.21,49.21,0,0,1-7.57,13.32,40.49,40.49,0,0,0-6.29,12.43,164.26,164.26,0,0,0-5,19.42c-.52,2.58-1.45,5.09-1.94,7.68s-.55,5.42-1.1,8.07c-.37,1.78-1.38,3.42-1.92,5.18-1.07,3.57-2,7.17-3,10.75-.3,1-.43,2.28-1.1,3-1.72,1.9-3.26,4.34-6.54,3.54a1.64,1.64,0,0,0-1.3.89,15.88,15.88,0,0,0-1,5.07c.12,1.75-1.17,3-1.1,4.59a15.36,15.36,0,0,0,.86,4.13c1.22,3.91,3.75,7.1,5.34,10.79,1.22,2.81.49,5.42.66,8.12-2.1,1.4-2.94,4.23-6.17,4.52-1.84.16-3.87,2.24-5.63,1.66s-3.26-2.6-4.79-4.07c-4.55-4.34-7.16-9.83-9.32-15.63a32.13,32.13,0,0,0-3.11-5.69c-.17-.28-1.58-.17-1.59-.1-.42,2.67-3.06,3.63-4.34,5.7a111.77,111.77,0,0,0-11.89,26.58c-2.43,8-4.65,16.07-7,24.08-1.23,4.14-2.62,8.24-4,12.33a1.9,1.9,0,0,1-1.3.94,12.16,12.16,0,0,1-2.49,0c-1.2,0-1.45.74-1.05,1.57a14,14,0,0,0,2.11,3.12c2.29,2.52,5,4.64,6.72,7.72.91,1.67,2.59,1.64,4.32,1.63,4,0,4.56.56,4.73,4.6,0,1-.32,2.31.19,2.89.89,1,1.26,2.32.57,3a6.84,6.84,0,0,1-4,2.31c-4.66.28-8.65,2.53-13,3.77a51.4,51.4,0,0,0-5.43,1.39c-2.17.89-3.69.19-5.17-1.31-3.4-3.43-6.85-6.81-10.23-10.27-1-1-1.78-2-2.87-.15-.13.22-.88.38-1,.25-1.33-1.47-3.26-1.86-4.83-2.85-3.08-1.93-4.21-5.64-3-9.48s2-8.12,4.54-11.62c.51-.71.25-1.35-.9-1.67-3.36-.93-3.27-1-2.25-4.14,1.18-3.68,2.87-7.15,4.25-10.73,2.6-6.76,5.9-13.23,8.13-20.14.85-2.62,2.29-5,3.31-7.62a138.12,138.12,0,0,1,8.08-17.14c3.74-6.63,7.39-13.4,13.33-18.5a25.11,25.11,0,0,0,4-4.79c1.56-2.19,1.77-4,.42-6.2-1-1.59-1.58-3.53-2.89-4.76-3.79-3.56-6.16-8.12-9.17-12.22-3.36-4.59-6.43-9.4-9.67-14.06s-6.33-9.66-9.48-14.51a18.25,18.25,0,0,0-1.67-2.3c-2.71-3-6.17-5.42-8.13-9.14-.42-.79-.79-.47-1.44,0a7.81,7.81,0,0,1-3,1.08c-1.51.25-2.83,2.32-4.35,1a10.7,10.7,0,0,1-3.26-4.59,34.38,34.38,0,0,1-1.07-8.05c-.17-3.49.13-7-.08-10.5-.27-4.26,1.78-8.3,1-12.58,2.21-2.42.43-5.55,1.57-8.35,1-2.43.38-5.52.42-8.32,0-3,.07-6,0-9a18,18,0,0,0-.75-2.66,4.37,4.37,0,0,1-.16-2.4c1.71-3.61.68-7.41.94-11.11.09-1.32,0-2.66,0-4,.31-6.87.16-13.8,1.19-20.56a81.66,81.66,0,0,0,.76-11.11c0-2.27,1.52-4.19,1.11-6.6a13.86,13.86,0,0,1,0-6.44c1.11-3.22.55-6.43.94-9.62.27-2.17.37-4.7,1.28-6.43,1.66-3.17.25-5.78-.76-8.16-2.11-5-3.36-10.27-5.63-15.16-1.7-3.64-2.94-7.61-5.92-10.53a2.77,2.77,0,0,1-1-2.59c.31-2.06-.57-4.18.61-6.26.3-.53-.49-2-1.13-2.67-1.51-1.66-3.65-3.25-3.32-5.55.29-2,1.63-4,2.88-5.75a18,18,0,0,1,14.13-7.7,12.85,12.85,0,0,0,5.87-1.56c2.37-1.36,4.79-2.65,7.5-.55a2.17,2.17,0,0,0,1.94,0c5-2.61,10.63-3.24,15.55-5.92a18.78,18.78,0,0,0,5-3.57c2.08-2.23,4.34-4.08,7.56-4.72,1.4-.28,2.65-1.69,3.83-2.74,1.93-1.71,3.57-3.73,5.94-5,1-.52,1.62-1.81,2.83-.38.08.09.73-.17,1-.41.63-.54,1.2-1.15,1.78-1.75s1.35-.6,2.07.06.79.92.14,1.83c-1.89,2.67-3,5.88-5.33,8.28a9.35,9.35,0,0,0-1.76,2.76c-.38.84-.17,1.61,1,1.58.83,0,1.8.28,2.48,0,3.6-1.73,7.4-.72,11.1-.92,2.18-.12,2.86.81,2.23,3a6.66,6.66,0,0,1-5.06,5,28.17,28.17,0,0,0-9.36,3.95c-.51.34-1.29.34-1.67.75-.73.81-1.81,1.84-1.73,2.69s1.34,1.41,2.58,1.76c1.72.48,3.82.47,5.08,2.17.55.73,1.84,1.3.92,2.38-.56.65-1.89,1.47-2.37,1.22-2.16-1.11-4.79-.13-6.53-1.08-2.24-1.23-4.62-.8-6.86-1.57s-5-.67-6.93-2.66c-.18-.19-.69-.12-1-.09-4,.39-7.35,2.29-10.92,3.81-3.25,1.38-5.62,3.66-8,6.08-.23.24-.47.47-.71.71-1.06,1.06-2.71,2-3,3.22-.17.84,2,2,2.41,3.18.31.83,1.72,2,.22,3.19-.29.24,0,1.73.42,2.2a11.93,11.93,0,0,1,2.84,5.86,7.3,7.3,0,0,0,1.73,2.76c2.78,3.2,5.69,6.3,8.43,9.52a37.38,37.38,0,0,1,2.53,4c.43.66.8,1.55,1.42,1.84s1.54,0,2.32-.07a12.45,12.45,0,0,1-.2-1.71c0-2.66-3.12-5.1-.59-8,.11-.13-.49-.77-.58-1.2a25.88,25.88,0,0,0-.41-2.84c-.54-1.65,2.38-.26,1.61-1.92-.39-.84-1-1.59-1.35-2.44-.09-.22.4-.7.65-1,.94-1.28,1.92-2.53,2.8-3.84a2.25,2.25,0,0,0,.24-1.34c-.16-2.3-.13-2.27,1.61-3.48a32.92,32.92,0,0,1,3.87-2.76c.87-.43,1.57-.49,1.78-1.75.13-.74,1-1.78,2.49-.58.86.68,2.64-.21,4-.68s1.11-2,1.58-1.88c.78.14,1.37,1.17,2.16,1.57a3.05,3.05,0,0,0,1.94.08c.74-.17,1.5-1,2.08-.85s1.15,1.14,1.81,1.62c.32.23,1.17.31,1.29.13,1.37-2.1,2.67-.13,3.72.25,1.41.51,2.21,2.33,4.23,2,.38-.07,1.39,1.14,1.41,1.78.07,2.5,1.55,3.79,3.43,5a19.06,19.06,0,0,1,3.19,3.16c.28.31.56,1.09.41,1.26-1.34,1.46-1.48,2.8,0,4.23a1.07,1.07,0,0,1,0,.93c-2.67,1.16-.58,3.23-1,4.79a42.67,42.67,0,0,1-2,5.18c-.21.53-.47,1.43-.77,1.45-2.09.2-1.45,2-1.08,2.56,1.53,2.17,1.15,3.82-.62,5.58-.46.46-.38,1.49-.52,2.26a11.4,11.4,0,0,1-3,5.18c-1.66,1.71-1.76,4.45-3.85,5.93-.16.12.11,1.23.46,1.62,1.34,1.49,2.77,2.89,4.22,4.27,4.11,3.91,6.52,8.76,8.19,14.11a44.89,44.89,0,0,1,1.91,17.17c-.29,3.52,1.33,6.49,2.21,9.63.48,1.69,3,2.74,3.72,4.44s1,1.52,2.32.74,2.61-1.79,4.41-1.49c.62.1,1.4-.56,2.07-.94a145.35,145.35,0,0,0,14.79-9c2.31-1.66,4.45-3.69,7-4.84,2.87-1.3,3.58-3.29,3.56-6a7.16,7.16,0,0,1,.3-2.87c.27-.61,1-1.93,2.05-.45.93,1.29,2,1.72,3.12.18,1.58-2.14,4.34-3.09,5.6-5.59,1.12-2.21,2.4-4.34,3.51-6.55.75-1.51,1.37-3.07,3.19-3.61,0,1.79.5,3.72,0,5.32-.77,2.32-2.27,4.39-3.42,6.58a5.79,5.79,0,0,0-.31,1.35,9.28,9.28,0,0,1,1.41-.46c4.79-.77,8.95-3.41,13.59-4.6a7.44,7.44,0,0,1,1.81-.43,1.79,1.79,0,0,1,1.13.62.93.93,0,0,1-.08.9c-1.16.82-1.62,2.44-3.48,2.52a9.14,9.14,0,0,0-3.38,1.41c-2,1-3.92,2.11-5.87,3.17,2.29.11,4.57.28,6.86.33,2.66,0,5.32,0,8,0Zm-98.35,115.65c.47,1,.85,1.88,1.22,2.72a84.44,84.44,0,0,1,4,9.29c.77,2.51,1.69,4.95,2.57,7.41a92.89,92.89,0,0,1,3.53,12.51,12.68,12.68,0,0,0,.4,1.33c.47-.41,1.19-.73,1.37-1.24,2-5.65,4.13-11.26,6.14-16.91,3.5-9.85,6.28-20,11.06-29.33.13-.25,0-.64,0-1a8.85,8.85,0,0,0-1.05.14c-10.07,2.85-19.11,7.82-27.85,13.42A8.11,8.11,0,0,0,2038.65,1237.65Z" transform="translate(-1437 -944)"/><path d="M1437,977c2.74-.6,2-3.36,2.87-5,1-1.86.81-4.35,3.54-5,.26-.07.58-1.2.38-1.57-.68-1.23-1.74-2.27-2.38-3.52-.78-1.51-1.78-3-1.4-4.91a3.74,3.74,0,0,1,.39-.84,5,5,0,0,1,.7.51,41.75,41.75,0,0,1,5.75,6.59c1,1.6,1.78,3.44,4,4.44,1.5.68,2.52,3.17,3.08,5.05a156.7,156.7,0,0,0,8.24,21.09c2,4.32,3.19,9,4.85,13.49,1.57,4.25,2.71,8.67,6.48,11.85,2.83,2.4,3.37,6.21,4.52,9.58.17.49.71,1.28,1,1.24,2.82-.44,3.11,2.18,3.85,3.61a13.94,13.94,0,0,1,1.09,6c0,2.71,1.25,4.64,3.61,5.34,1.75.53,1.69.79,1,2.23-.31.62.26,2,.85,2.68,3.57,4.06,7.19,8.08,11,12,1,1,2.67,1.52,4,2.25.78-1.51,2.07-2.86,1.61-4.76s.66-3.38,1.29-5c.39-1,1.79-2,1.61-2.76-1-4.12,2.52-6,4.06-8.88,1.27-2.32,1.4-2.15-.55-4.84-.43-.59,0-1.76,0-2.66,1.62.24,1.32-1.49,2.09-2,1.27-.86,2.79-1.35,4.06-2.2.7-.46,1.06-1.09,1.86-.14.17.21,1.55-.19,1.55-.31a2.34,2.34,0,0,1,2-2.42c1.22-.32,2.27,0,2.23,1.61a2.65,2.65,0,0,0,.67,0,8.6,8.6,0,0,0,.18-1.43c0-1.25.31-.74,1.29-.57,3.55.6,6.1,3,9.19,4.42.9.41,1.54,1.64,1.56-.45,0,0,.76-.24.92-.1.73.66,1.87,1.37,1.94,2.14.13,1.64,1.1,1.38,2,1.33a5,5,0,0,1,2.62,1c3,1.57,3.49,4.93,5.41,7.25.47.56.44,1.51.88,2.12.8,1.13,2.74,1.81,1.19,3.73-.1.13.33.91.68,1.15a3.41,3.41,0,0,1,1.08,4.4,43.07,43.07,0,0,0-2,6.71c-.55,2-2.23,3.82-1.84,6.21-1.33.41-.47,3.26-2.9,2.56a1.82,1.82,0,0,0-1.52.93c-.93,3.35-4.51,3.93-6.36,6.29a2.25,2.25,0,0,1-.72.69c-.86.39-2.74-.82-2.37,1.28.09.53,1.77,1,2.78,1.12,4.45.79,8.65,2.46,13,3.63,5.63,1.52,11.06,3.37,15.31,7.69,6.9,7,13.91,13.9,20.82,20.89,1.33,1.35,2.21,3.19,3.66,4.35,1.27,1,3.08,1.36,4.6,2.09.56.28,1.27.75,1.43,1.27.91,3,3,4,5.92,3.77a2.37,2.37,0,0,1,1.94,1.13c1,3.61,4.22,3.85,7,4.82a18.25,18.25,0,0,1,6.55,3.54c1.31,1.18,1.42,2.84,2.22,4.07,1.21,1.85,0,2.9-.26,4.36-.33,2-1.7,3.85-1.1,6.08.48,1.81.65,3.71,1.15,5.53.44,1.63,1.22,3.16,1.69,4.78a2,2,0,0,1-.42,1.67c-2.66,2.68-1.18,5.82-1,8.79,0,.59.63,1.16.61,1.73-.23,5.18,1.52,10.09,2.15,15.15a30.65,30.65,0,0,0,3.08,9.67c2.36,4.68,2.87,9.38,2.8,14.36,0,1.5,0,3,0,4.49a5.79,5.79,0,0,1-.51,1.79c-.86,2.2-3-.3-3.32.53-.51,1.4-1.11,2.27-2.52,2.4-.34,0-.93-.94-1.07-.86-.94.55-1.72,1.53-2.71,1.82-.84.25-2.17-.7-2.8-.32-1.73,1.05-2.67.23-3.84-.84a5.91,5.91,0,0,1-2.27-5.1c.22-4,.18-8,0-12-.09-1.85.73-3.4,1-5.09.64-3.9-.42-7.75-1.48-11.38-.72-2.46.6-5.27-1.47-7.37.34-3.74-2-7-2-10.67,0-.38-.34-1.05-.62-1.11-3.49-.68-3.22-4-4.3-6.25-.59-1.24-.42-2.89-1.13-4s-.53-3.34-3.09-2.89c-.93.16-1.93-1-1.84-2.42a5.52,5.52,0,0,0-.06-2.47,3.68,3.68,0,0,0-1.86-1.92,12.53,12.53,0,0,0-3.47-.08c-1.34,0-2.89.42-3.93-.13-.87-.46-1.09-2.08-1.69-3.14a3.88,3.88,0,0,0-1.25-1.46c-4.45-2.52-9-4.94-13.39-7.49-.78-.44-1.35-1.21-1.32.35,0,2.59-1.17,4.93-1.22,7.58,0,1.73-1.9,3.52-3.16,5.1-2,2.52-2.23,3.22-.46,5.84a142.15,142.15,0,0,0,11.5,14.81c4.35,4.89,9.48,9.23,12.57,15.21a5.87,5.87,0,0,0,2.51,2.29c5.53,2.74,5.53,2.71,7.87,6.16,1.77,2.62,2.06,5.8,3.29,8.63.18.42-.58,1.5-1.16,1.93-2.39,1.74-2.79,4-2.85,6.88-.17,8.83-4,15.62-11.45,20.74-3.07,2.1-6.49,3-9.64,4.6-.79.4-1.92.4-2.45,1.26-2.11,3.37-5,6-7.8,8.76a1.28,1.28,0,0,0-.09,2.07c5,5.28,9.85,10.62,14.89,15.81a48.54,48.54,0,0,0,5.58,4.6,3.07,3.07,0,0,0,1.74.57c3,.09,4.8,2,6.08,4.37,1.54,2.78,2,5.83,2.43,9,.68,5,.22,10.52,3.62,14.94,1,5.42,3.51,10.51,3.2,16.18-.12,2.16,0,4.34,0,6.5-.08,4.34-1.27,8-5.56,10.15-1.65.82-2.3,3.41-4.82,2.85-3.22,2.36-6.47.66-9.65-.07a3.35,3.35,0,0,1-1.91-1.89,31.33,31.33,0,0,1-2.14-6.63c-.85-5.38-1.2-10.8-1.93-16.18a8.54,8.54,0,0,0-1-3.55c-1-1.4-2-3.16-4.26-2.68-1.94.41-3.51-.65-4.78-1.7-3.84-3.16-7.8-6.1-10.7-10.41-3.14-4.66-7.45-8.53-10.77-13.09a97.69,97.69,0,0,0-11-12.9,6.15,6.15,0,0,0-7.47-1.32c-5.61,2.56-11.17,5.22-16.79,7.75-2.94,1.32-6,2.42-9,3.68-1.49.64-1.69,1.52-.35,2.24,6,3.21,8.36,9.45,12.06,14.49,3.94,5.35,6.93,11.39,10.24,17.19s6.21,11.55,10.12,16.83a2.88,2.88,0,0,1,.72,1.68c-.21,2.15.83,3,2.71,3.89,2.77,1.37,5.76,2.43,8.11,4.64,1.15,1.08,1.62,1.9.83,2.91-3.87,4.89-7.8,9.75-11.65,14.67-4.51,5.78-9,11.62-13.44,17.43-.1,2.76-2.76,3.47-4.18,5.18l-4.59,5.59c-1.37,1.68-2.94,1.54-4.78.77a4.29,4.29,0,0,1-3.1-4.21c-.22-2.85,1.73-4.36,2.8-6.39.88-1.67,2.35-3,3.45-4.58a5.71,5.71,0,0,0,.86-2.14c.48-2.31.44-4.85,1.43-6.9a8.7,8.7,0,0,0,.53-4.26c0-1.83-.92-.12-1.31-.22-1.05-.28-.86-1.84.3-2.82,1.42-1.2,1.46-1.4,0-2-8.07-3.34-7.14-5-9.87-10-4.16-7.55-7.19-15.66-10.46-23.65a69.45,69.45,0,0,0-10.75-18.06c-3.09-3.73-7.31-6.32-10.18-10.19-3.08-4.16-6-8.46-5.76-14.11.2-4.72,2.47-8.45,5.39-11.75,2.12-2.39,4.86-4.22,7.36-6.27.85-.7,1.91-1.17,2.68-1.94,4.75-4.67,9.38-9.47,14.2-14.07,1.18-1.12,1-1.76.46-3a20.91,20.91,0,0,1-1.93-11.13,20.54,20.54,0,0,1,3-8.21c2.31-3.51,5.94-5.85,9.76-7.55,3-1.31,6.16-2,9.23-3.07,1.89-.64,2-1.71.88-3.55-1.4-2.23-3.15-4.44-3.79-6.91-.9-3.51-2.93-6.46-4-9.84-1.05-3.22-2.27-6.39-3.51-9.54-4.37-11.06-9.88-21.58-15.15-32.22a59.54,59.54,0,0,1-5.5-16.22c-.6-3.4-1.6-6.75-1.91-10.18a71.86,71.86,0,0,1,0-11c.17-2.7,1.15-5.29,1-8.09a7.18,7.18,0,0,0-1.13-3.57q-6.49-10.82-13.17-21.53a23.44,23.44,0,0,0-2.78-2.87c-.42-.45-1.06-1.13-1-1.55.75-3.13-1.81-3.83-3.62-4.9-3.48-2.06-4.43-2.8-3.3-6,1.27-3.59-.65-5.22-2.79-7a7.86,7.86,0,0,0-3.17-1.94c-1.89-.35-1.93-2-2.63-3.08a3.29,3.29,0,0,1,.7-4.75c2.68-2.19,3.85-4.58,1.84-8-.63-1.09-.18-2.68-.95-4.11-.55-1,0-2.87.46-4.17,1.68-4.32,1.69-4.27.45-10.51a14.12,14.12,0,0,1,0-5c.5-3-.63-5.79-1.2-8.56a8,8,0,0,0-5.1-5.93,7.75,7.75,0,0,1-4.88-5.25c-.51-1.54-1.16-3.43-3.51-4.09-1.35-.38-2.26-2.38-3.36-3.65Z" transform="translate(-1437 -944)"/><path d="M1866,944c-.31,2.06.61,4.21-.67,6.23-1,1.61.49,3.92-1.3,5.48-.24.21-.08,1,0,1.46.12.94.3,1.87.46,2.8a4.09,4.09,0,0,0,1.64-2.79,9.55,9.55,0,0,1,1.92-3.67c.77-1.14,1.59-2,2.85-.21,1,1.47.91,0,1.16-.63a1.31,1.31,0,0,1,1.09-.61c.32,0,.87.61.83.87-.45,2.85,1.07,5.85-.88,8.64-.54.79-.1,2.28-.06,3.44a2.66,2.66,0,0,0,.34.85,3.32,3.32,0,0,0,.7-.44c1.31-1.28,2.54-2.65,3.92-3.86a23.67,23.67,0,0,1,3.48-2.45,1,1,0,0,1,1.37,1.51,16,16,0,0,1-2.83,3.8c-4.54,3.61-7.3,8.66-10.88,13a52.19,52.19,0,0,0-6.66,9.72c-3.12,6.35-5.83,12.91-8.39,19.51-1.29,3.31-2.2,6.73-4,9.85-1.06,1.84-1.2,4.2-2.24,6.05a94.44,94.44,0,0,1-6.56,10.82c-3.55,4.71-5.46,10.33-7.3,15.94-2,6-3.53,12.15-6.51,17.8-1.08,2-1.25,4.57-3.25,6.15.52,1.48-.4,3.28.19,4.41,1.37,2.65,2,5.5,3,8.25a3.58,3.58,0,0,1,0,1c-.45-.12-1.17-.11-1.3-.39-.8-1.66-1.38-3.43-2.23-5.06a2.58,2.58,0,0,0-1.71-1.23c-.76-.08-1.19,1.71-.73,2.7a9.9,9.9,0,0,0,.73,1.69c1.25,1.67,2.69,3.2,3.83,4.93.72,1.09,1.46-1.88,2,.18a8,8,0,0,0,1.25,2c.44.7.86,1.41,1.3,2.11-1,0-2.16.42-2.93,0-2.26-1.16-4.54-2.43-5.66-4.94-.12-.28-.17-.66-.38-.83a10,10,0,0,0-1.4-.88c-.07.46-.33,1-.19,1.39,1.49,4.09,1.3,8.21.46,12.38a2.1,2.1,0,0,0,.48,1.39,46.48,46.48,0,0,1,6.29,11.39c1.44,4,2.91,7.91.37,12.23-1.11,1.89-2.76,4.35-.69,6.94.41.51.06,1.62.06,2.45v10c0,3.66-.15,7.34,0,11s-.32,7.12.49,10.76c.76,3.47.41,7.2.45,10.82,0,3.39.11,6.76-.93,10.1-1.51,4.89-1.87,10.08-4,14.85a11.14,11.14,0,0,0-1.07,6.56c.47,2.47.94,4.94,1.44,7.4.12.6.6,1.21.52,1.76-.62,4.29,1.24,8.34,1.08,12.59s0,8.66,0,13a6.27,6.27,0,0,1,0,2,2.73,2.73,0,0,1-1.23,1.44c-.44.2-1.12-.07-1.68-.17s-1.49-.52-1.65-.32c-1.28,1.58-3,2.58-3.54,5-2.16,9.07-3.77,18.29-6.69,27.18-1.12,3.41-1.26,7.12-2.21,10.6-1,3.76-1.25,7.67-2.7,11.37a8,8,0,0,0-.09,5.81c1.08,2.13.63,4.12.82,6.17.17,1.79-.14,3.7.38,5.36s-.77,2.77-.44,4.32a16,16,0,0,1,0,5,32.75,32.75,0,0,1-1,4.09c-1,4.25-1.78,8.57-3.07,12.73a88.56,88.56,0,0,0-3,11.26c-.63,3.64-2.41,7-3,10.76a17.78,17.78,0,0,1-1.31,3.95c-1.54,3.9-2.79,7.78-.7,11.92.34.67.41,2,0,2.41-2.19,2.1-.17,3.74.8,4.89a10.32,10.32,0,0,1,2.13,5.62,26.7,26.7,0,0,0,2.7,8.42,20.31,20.31,0,0,1,2.51,9A4.82,4.82,0,0,1,1799,1418c-2.28,1-4.54,2.13-7.17,2-.71,0-1.78-.4-1.79,1h-8c-.66-1.89-3-.49-3.94-2-.32-.48-1.79-.3-2-.74-.51-1.24-1.12-2.76-.82-4,1.25-4.94,2.34-9.94,4.46-14.63a9.61,9.61,0,0,0,.27-3.38c.08-1.91-.2-3.83,1-5.61a9.62,9.62,0,0,0,1.55-3.82,14,14,0,0,0-.51-3.91c-.18-1.06.46-1.75.94-2.62,1.24-2.25,1.12-2.2-1.41-2.39-5-.37-9.66-1.48-13.32-5.25a7.45,7.45,0,0,1-2.23-5.58c.07-4-.63-8.14.18-12,1.14-5.41.65-10.75.8-16.12a9.35,9.35,0,0,1,2.61-5.86,6.38,6.38,0,0,0,1.3-6.44c-1.68-5.94-3.37-11.89-5.25-17.78-1.24-3.85-2.62-7.74-2.67-11.92,0-1.54-.77-3-.92-4.59-.43-4.37,1-8.51,2.08-12.63.48-1.89.94-3.23.19-5.32a52.15,52.15,0,0,1-1.29-6.47c-1.58-7.5-2.67-15.08-4.76-22.5-.88-3.11-1.26-6.42-2.14-9.61-.51-1.85-1-2.63-3-3-3.15-.66-3.11-.92-3.12-4.17q0-11,0-22c0-3.56,1.17-7,1.15-10.58a30.51,30.51,0,0,1,1.95-10.13,47.62,47.62,0,0,1,4.9-9.45,36.54,36.54,0,0,1,13.17-12.56c2.13-1.18,2.42-3.63,3.88-5.18a7.51,7.51,0,0,0,2-6.22,20.46,20.46,0,0,1,0-4c.53-4.49-1.93-7.9-4.25-11.23-1.39-2-2.89-3.73-2.83-6.37a7.18,7.18,0,0,0-1-2.56c-.06-.14-.3-.36-.34-.34-.22.14-.57.31-.6.51-.62,4.18-3.82,6.56-6.5,9.3a.94.94,0,0,1-.92,0,1.11,1.11,0,0,1-.06-1,15.43,15.43,0,0,0,1.4-2.9c.19-1,0-2,1-2.58-.58-.92-1.15-1.85-1.75-2.76s-1.87-2-2-3.14-2.23-2-.26-3.11a9.69,9.69,0,0,0-1.44-1.36c-.12-.07-.72.5-1,.84-1.12,1.24-.38,2.16.26,3.44A11.25,11.25,0,0,1,1757,1136a14.18,14.18,0,0,1-2.11,2.62.75.75,0,0,1-.66.06c-.13-.27-.29-.81-.18-.89,2.59-1.88,1.79-4.64,2-7.19A6.26,6.26,0,0,0,1755,1127a4.31,4.31,0,0,0-.7-.79,4.73,4.73,0,0,0-.28.88c-.06.49.12,1.27-.11,1.41-.44.27-1.34.43-1.62.17a3.21,3.21,0,0,1-1.06-2c-.17-4.17-1.06-8.43,1-12.4.72-1.38,1.88-2.57,1.74-4.28,0-.62-.15-1.74-.36-1.77-3.64-.55-.82-2.48-.51-3.36.42-1.2,1.14-2.29.86-3.62-.17-.75.92-3.25-1.58-1.34-.13-.44-.5-1-.36-1.31.46-1,1.13-1.87,1.67-2.81.38-.67-.83-1.14,0-2.23.7-.92.13-2.79.12-4.24a21.28,21.28,0,0,0-3.75,1.19c-1.71.88-1-.59-1-1a4,4,0,0,1,.69-1.69c.26-.41.89-.67,1-1.08a3.51,3.51,0,0,0,.06-2.3c-.59-.94-1.35-.34-2,.26-.3.26-.88.2-1.33.28.17-.47.2-1.15.54-1.38,1.21-.82.75-1.34,0-2.18a91.89,91.89,0,0,1-7.93-8.65,32.31,32.31,0,0,1-3.9-6.42c-2.14-5-5.54-9.1-8.68-13.4a13.32,13.32,0,0,1-1.74-2.78,25.11,25.11,0,0,0-5.45-8.17c-4.22-4.3-6.56-9.6-9.18-14.76-3.56-7-6.68-14.22-10.09-21.3a60,60,0,0,0-3.6-6c-.35-.55-.85-1.23-1.4-1.38-4.64-1.23-6-5.61-8.7-8.76-1.45-1.72-2.8-3.51-4.25-5.23a18.52,18.52,0,0,0-6.92-5,17,17,0,0,1-3.82-2.8,1.33,1.33,0,0,1-.13-1.28c.22-.3.84-.34,1.29-.43a1.75,1.75,0,0,1,1,0c.65.31,1.57,2,1.54-.33,0-1.24.28-1.69,1.63-1.74,2.15-.09,4.38-.07,6,1.25,2.71,2.23,4.79-.51,7.17-.45a4.55,4.55,0,0,0-.24-1.69c-1.59-2.68-3.33-5.28-4.87-8a5,5,0,0,1-.48-2.68,1.29,1.29,0,0,1,2.06-.65c1.91,2.2,4.36,4.16,5.54,6.7,2.13,4.6,5.65,8.26,7.88,12.73a3.85,3.85,0,0,0,2,2.13,7.15,7.15,0,0,1,4.32,7.05c0,3.6.08,4.88,1.46,6.56,3.92,4.79,6.65,10.39,10.83,15.06a199.49,199.49,0,0,1,13.1,17c1.3,1.82,1.85,4.21,2.59,6.4.79,2.35,1.07,4.92,2.16,7.1a22.8,22.8,0,0,0,4.44,6.7,121.48,121.48,0,0,1,8.18,9.07c1.53,1.78,1.48,1.87,3.12.32,1-.91,2.09-2.42,3.28-1.51,2.32,1.78,2.41-1,2.48-1.39.25-1.36-1-.57-1.62-.66-1.25-.2-1.38-1.3-.79-1.66,3.24-2,4.74-5.67,8.23-7.59,3.18-1.75,5-5.21,5.57-9.07s2.68-7.27,5.11-10.37c1.82-2.32,4.37-3.12,7.12-3.32s5.53.44,7.83-1.62c2.17.5,4.42.87,6.17,2.38,1.38,1.2,2.58,2.6,3.91,3.86a4.15,4.15,0,0,0,1.94,1.29c1.67.15,2.76.31,1.29,2.22-.13.17.07.83.31,1,4.86,3.73,7.38,9.45,11.62,13.71.87.88-.49,2.43.67,3.37.33.27.71.7,1,.69a1.3,1.3,0,0,0,.92-.79c1.27-4.71,3.74-8.82,6.29-12.89,1.25-2,1.87-4.36,3.74-6-.67-2.62,1.16-4.54,2.07-6.64,2.1-4.8,4.38-9.54,6.94-14.11,4.33-7.74,9.85-14.79,13.7-22.82a36.45,36.45,0,0,0,2.22-6.56c.15-.58-.67-1.35-.92-2.08-.7-2-1.25-4.14-2-6.15a23.91,23.91,0,0,1-1-8.77c.24-2.71-.08-5.42,1-8.1.58-1.49.8-.78,1.43-.25a4.06,4.06,0,0,1,1.69,3.82,16.47,16.47,0,0,0,0,4.49,3,3,0,0,0,1.5,1.79c.32.18,1.16-.31,1.64-.67,2.31-1.71,3.32-4.15,3.81-6.91a38.34,38.34,0,0,1,3-10.26c.34-.69.67-1.39,1-2.09Zm-77.84,319.34c-.43-5.22-.75-9.74-1.2-14.25a6.52,6.52,0,0,0-1-2.56,1.42,1.42,0,0,0-1.23-.47,1.3,1.3,0,0,0-.7,1c0,5.49,0,11,0,16.46,0,.57.66,1.13.67,1.7q0,3.35-.15,6.69a38.19,38.19,0,0,1-.56,4.26c-.28,1.53-.71,3-1,4.58-.07.39.29.87.51,1.27,2,3.73.92,8.11,2.43,12,.17.43.23,1.23,0,1.44-1.74,1.48-.73,3.41-1,5.12-.4,3-.19,6.25-1.3,9-.75,1.81.07,3.71-.93,5.08-1.36,1.87-.46,3.81-.75,5.69,0,.19.34.44.53.65.14-.27.39-.53.42-.81a34.56,34.56,0,0,1,3.75-12.44c.67-1.29,1.48-3.35.92-4.28-1-1.67-.63-3.21-.61-4.75C1787.22,1286.65,1786.18,1274.61,1788.16,1263.34Z" transform="translate(-1437 -944)"/><path d="M1666,1202c-.94-3.73,1.29-7.64,2.32-11.77a7.71,7.71,0,0,0,.63-2.21c-.11-1.2-1.18-2.79-.73-3.46a5.9,5.9,0,0,0,.79-3.21c.57-5.73-1.93-10.81-3.35-16.12-.27-1-.68-2-1.05-3.06-1.67-4.59-1.66-4.6-5.89-6.89-.75-.4-2.14-.12-1.72-1.7-4.12-5.13-8.48-10.08-12.25-15.45a71.24,71.24,0,0,0-6.84-7.63c-1.5-1.61-2.49-1.56-5.56-1.53-2,0-4.43-.13-5.9-1.23a9.79,9.79,0,0,1-3.27-5.51c-.28-1.36,1.09-3.1,1.81-4.63a4.05,4.05,0,0,1,1-1.07c1.3-1.2,1.36-2.34.22-3.8s-1.5-3.11-2.57-4.4c-.91-1.08-.62-2.15-.66-3.24,0-1.26.88-1.28,1.64-.82s1.12,1.3,1.83,1.65c.28.15,1.33-.93,1.47-.81a29.37,29.37,0,0,1,4,4c2.09,2.76,4.89,5,6.17,8.43.14.38,1.45.34,2.22.48,1.76.32,3.82,1.89,3.55,3.31-.63,3.31,1.55,5,3.55,6.55,3,2.33,6.22,4.25,9.29,6.45.63.45.88.73,1.45,0,1.91-2.39,3.88-4.73,5.79-7.11a30.13,30.13,0,0,0,2-2.68,4.57,4.57,0,0,0,1-2.07c0-3.26,1.36-6,2.85-8.84,1.17-2.19,1.2-5.15,3.63-6.43,2-1.07,4.38-1.48,6.58-2.19,1.62-.53,1.74-1.14,1-3-.79-2-1.91-3.8-2.23-6.13a9,9,0,0,0-3-5.74,19.87,19.87,0,0,1-4.24-5.21c-.84-1.42-.9-3.28-1.59-4.82-.54-1.23-1.08-2.12.44-3.06,1-.64,2-1.5.68-3-.28-.31.09-1.66.57-2.15,1.9-2,1-4.2.23-6-.68-1.55,0-2.47.32-3.65,2.66.26,1-2.88,2.47-3.24,1.83-.45,2.51-2,3.76-3,.65-.52,1.16-1.2,1.79-1.75.86-.77.78-1.32.25-2.46a65.34,65.34,0,0,1-4.64-16.11c-.79-4.42-1.27-8.94-2.6-13.35-.93-3.06-1.15-6.47-2.23-9.6a24.56,24.56,0,0,0-2.06-5.13,6.77,6.77,0,0,0-3.73-2.8c-3.52-1.22-7.28-2.36-9.63-5.74a12.18,12.18,0,0,0-2.82-2.82,6.41,6.41,0,0,1-2.73-6.88c.15-.84-.69-2.37.85-2.32a4.91,4.91,0,0,1,3.07,1.7,38.36,38.36,0,0,1,2.74,4.34c.2.31.68.44,1,.65a5.27,5.27,0,0,0,.27-1.38,17.78,17.78,0,0,0-2.21-7.07c-1.89-3.72-4.19-7.25-5.21-11.34-.38-1.5-.8-3.39-.21-4.62s.38-2.19.69-3.23a8.51,8.51,0,0,1,1.28-2c.47.35,1,.68,1.4,1.06s.94.64,1,1.06c1,4.25,4.73,7,6.3,10.89.3.76,1.28,1.3,2,1.79a38.15,38.15,0,0,0,3.66,2c1.66.81,3.79,1.15,4.93,2.42a13.61,13.61,0,0,1,3.15,6.11c.4,2,1.41,3.44,2.1,5.15a31.65,31.65,0,0,1,2.18,8.14,85,85,0,0,0,4.3,17.17c2.53,7.46,5.77,14.61,8.88,21.82.79,1.84,1.65,3.65,2.47,5.48A7,7,0,0,0,1698,1050c.44.17.62,1,1.06,1.2,1.17.66,2.54,1.83,3.6,1.61,1.67-.33,2.79-.32,3.86,1.05.13.17.93,0,1.29-.22s.83-1.16,1.25.1a9.88,9.88,0,0,0,3.65,5.41,5.66,5.66,0,0,1,2.31,4.52,3.71,3.71,0,0,0,1.2,3c1.89,2,1.51,2.09,2.19,5.48a10.74,10.74,0,0,1-.16,5.65c-.43,1.52-2.78,3.32-.59,5.28a.7.7,0,0,1,0,.67c-1.72,1.58-2.06,3.8-3,5.77s-3.14,3.37-4.78,5a1.36,1.36,0,0,0,.74,2.33c1.66.08,3.34-.14,4.36,1.56.4.66,1.06,1.46.94,2.07-.4,2,.93,2.41,2.19,3.05a9.62,9.62,0,0,1,2.38,1.44,7.13,7.13,0,0,1,1.38,2.29c-1.63,1.2.56,2.18.13,3.25-.06.14,0,.33,0,.49-.49,2.67-.44,2.79,1.14,3.91a2.91,2.91,0,0,1,.55.8c-.31.07-.7,0-.91.21-.72.59-1.7,4.33-1.35,4.91,1,1.65.77,3.06-.78,3.84-.29.15-.92-.34-1.39-.53a6.84,6.84,0,0,0-.22,1.88c.11.75.59,1.44.73,2.18a7.71,7.71,0,0,1,0,2.35c-.09.7-.79,1.67-.53,2,.66.87,1.39.21,2-.4.08-.08.6.09.66.24s.17.86,0,1a29.88,29.88,0,0,1-4.43,2.52c-2.89,1.17-3,1.3-1.28,3.83a4.43,4.43,0,0,1,.69,1.7,3.79,3.79,0,0,1-.3,1.35,3.62,3.62,0,0,1-.7-.39c-.84-.8-1.66-1.62-2.48-2.43-.16,1.27-.37,2.53-.47,3.8a22.29,22.29,0,0,0,1.61,10.33,5,5,0,0,1,.36,1.84c0,2.5.08,5,0,7.5-.07,2.27,1.74,4.23,1,6.58,1.68,4.43.37,9.12,1.1,13.57.94,5.65,1.61,11.44,4.58,16.58a10.14,10.14,0,0,1,1.39,5.45c0,2-.81,4.29.93,6.08-.51,4.32-.28,8.9-1.5,12.91-1.14,3.77-3,8-7.43,9.86a12,12,0,0,0-4.15,3.16c-1.56,1.76-4.39,1.21-5.62,3.47a50.8,50.8,0,0,1-3.52,5.54c-2,2.84-4.27,5.56-6.33,8.39-1.38,1.9-2.56,4-3.93,5.86-.61.85-.37,1.06.5,1.06,6,0,11.15,2.68,16.42,5a18.72,18.72,0,0,1,4.45,2.47c1.32,1.11,4.31.48,4,3.08-.21,1.79,2.52,3.45.13,5.21-.16.12,0,.64,0,1-.46,6-2.1,9.75-5.39,15.28-1.7,2.87-2.49,6.29-3.59,9.49-.81,2.34-1.21,4.85-2.2,7.09-1.92,4.32-5.86,6.48-9.91,8.36a12.61,12.61,0,0,1-3.58,1c-1.14.17-2.34-.07-3.48.11-.35,0-.85,1.3-.81,1.33,2.19,1.49.14,4,1.58,5.93,1,1.35,1,3.55,1.38,5.38,1.43,6.7,3.08,13.35,5.15,19.87,3.64,11.45,4.39,15.29,3.83,25.39a14.37,14.37,0,0,1-.66,2.22c-.36,1.51-1.8,2.67-1.36,4.46a1.92,1.92,0,0,1-.43,1.3c-2.57,3.72-2.58,3.72-2.55,5.87,0,1.76,0,1.92-1.92,2.56a44.46,44.46,0,0,1-5.82,1.73,114.73,114.73,0,0,0-12.11,3.29,100.85,100.85,0,0,1-10.87,2.86c-3.6.66-7.11.34-10.63.77a5.17,5.17,0,0,1-3.57-1,2.13,2.13,0,0,1-1-1.23,18.32,18.32,0,0,0-.91-4.64c-1.05-2.71,0-4.09,2.86-5.62a22.58,22.58,0,0,1,2.43-1.38c1.76-.65,3.77-1,1.68-3.5.63-1.37,1-3,2-4.07a8.14,8.14,0,0,0,1.94-6.23,22.44,22.44,0,0,1,0-4.49,13.88,13.88,0,0,0-1.36-7.46c-.74-1.81-1.07-3.54-.35-5.07,1.05-2.21.4-4.7,1.58-6.86.33-.59-.15-1.94-.68-2.62-2.74-3.57-5.63-7-8.42-10.53a9.12,9.12,0,0,1-1.41-2.41c-2.74-7-5.82-13.94-8.11-21.13a58.3,58.3,0,0,1-1.29-6.47c-.31-1.53-.64-3.07-1-4.58,0-.15-.6-.29-.89-.24-6,1-7.22.82-12.54-2.42-4.15-.38-4.93-4.57-7.51-6.72-.31-.26-.21-1-.51-1.26-5.3-4.8-4-10.11-1.56-15.75a115.43,115.43,0,0,1,11.59-20.17c3.39-4.91,6.1-10.2,9.47-15.1a18.34,18.34,0,0,1,2.11-2.62,124.37,124.37,0,0,0,10.41-12.13c2.94-3.91,6.31-7.93,11.36-9.69,4.65-1.63,5.57-5.69,6.08-9.88A53.62,53.62,0,0,0,1666,1202Z" transform="translate(-1437 -944)"/><path d="M1936.81,1403c-6.76.06-12.9-2.24-18.91-5-.57-.26-1.45-.72-1.47-1.12-.24-4.42-5.08-6-6-9.95-.13-.55-.32-1.51-.1-1.64,2-1.19,1.57-3.06,1.69-4.85a11.7,11.7,0,0,1,3.94-7.86c1.17-1.1,3.13-4,3-5.14-.37-3.36,1.1-6.89-.93-10.11-.23-.36,0-1,0-1.48a50.45,50.45,0,0,0-1.92-13.69c-.77-3.08-.69-6.37-1.1-9.56-.2-1.54-.68-3-1-4.59-.18-.94-.25-1.9-.37-2.85a21.11,21.11,0,0,0-1.61,3,102.74,102.74,0,0,1-9,18.3c-4.15,6.42-8,13-12.1,19.47a123.21,123.21,0,0,0-8.09,15.65c-1.23,2.74-1.05,7-.08,9.79.91,2.64,2.65,4.84,3.37,7.64.39,1.56,2.46,2.8,4,3.94,2,1.51,3.16,5.92,1.71,7.63-.85,1-2.76-.3-3.41,1.4-4.79-.19-9.76.9-14.16-2-.45-.29-1.21-.63-1.23-1-.21-2.64-1.75-4.46-3.62-6-1.68-1.39-2.08-3.14-1-4.74.85-1.32.55-2.54.55-3.77,0-2.27.07-4.46,1.45-6.42a2.78,2.78,0,0,0,.56-1.74c-.33-2.71.84-4.88,2-7.2,2.84-5.7,4.36-11.87,6.17-17.95,1.37-4.61,2.36-9.32,3.68-13.94.88-3.09,1.48-6.39,2.14-9.62,2-9.61,4-13.36,8.51-20.47a46.73,46.73,0,0,1,5.62-6.67c1.7-1.81,3.13-3.65,2.93-6.3-.15-2.1,1.44-3.86,1-6.09a9.24,9.24,0,0,1,.91-5.59c.86-1.8,1.17-3.87,2.08-5.63,1.73-3.32,1-6.36-.22-9.62-1.64-4.48-3.31-9-4.81-13.5s-3.07-9.08-4.4-13.67c-1-3.6-1.76-7.28-2.61-10.92-.35-1.53-.73-3.05-1-4.59s.37-2.86-.94-4.16c-.5-.5-.19-1.94-.06-2.92.26-1.87.71-3.72,1-5.59s-.15-3.71.88-5.65c.9-1.7-.57-4.21,1.14-6-.51-4.6,2.77-8.31,3-12.74,2.38-2.88.32-5.3-1.65-6.4-5.54-3.1-7.88-8.73-11-13.51s-6.52-9.79-8.77-15.32a92.8,92.8,0,0,1-4.61-13.58c-.67-2.85-2.51-5-4.16-7.27a1.42,1.42,0,0,0-1.29-.34c-.3.13-.52.78-.53,1.2,0,1.11-.39,2.36.86,3.13-.34.2-.92.64-1,.57-.59-.6-1-1.47-1.65-1.91a13.82,13.82,0,0,0-2.6-.93c-.25-.1-.39-.45-.58-.69a3.6,3.6,0,0,1,1.32-.39c.5,0,1.31.68,1.39.58a7.94,7.94,0,0,0,1.07-2s-.68-.59-1-.54a4,4,0,0,1-3.6-1.25,3.48,3.48,0,0,0-1-.51c0,.46-.26,1,0,1.33,1.21,1.65,1.39,3.33-.11,4.76-1.22,1.17-1.45,2.05-.1,3.21.15.13-.21.85-.34,1.3-.54-.17-1.48-.23-1.55-.52-.49-1.87-2.39-3.72-.25-5.75.22-.2,0-.86,0-1.32a6.29,6.29,0,0,0-1,.49c-.52.37-1,.86-1.51,1.19-.2.12-.63,0-.89-.18-.08,0-.06-.5.06-.67.85-1.15,1.79-2.25,2.56-3.45.19-.3-.1-.91-.17-1.38l-1.06.49c-3.23,1.52-4.4,1.11-5.5-2.1a3.79,3.79,0,0,1,0-2.33c.94-2.73,3-5.3.84-8.36-.07-.11.41-.81.75-1a14.32,14.32,0,0,1,2.16-.58,7.73,7.73,0,0,0-1.09-2c-1.27-1.26-.52-1.11.61-1.57.76-.3,1.07-1.78,1.5-2.77.09-.21-.16-.58-.26-.87a2.47,2.47,0,0,0-.7.3,10.27,10.27,0,0,1-1.45,1.36c-.31.18-.87-.08-1.32-.13.07-.24.08-.59.24-.69.86-.53.37-1.84,2-2.29s3-2.54,4.25-4.08a2.47,2.47,0,0,0,.09-2.26c-.58-.94-1.34-.36-2,.24-.31.27-.9.21-1.34.34-2.49.77-2.79,1.32-2.14,3.81.09.35.21.7.32,1.06-.54-.16-1.53-.26-1.56-.48-.19-1.57-2-2.75-.38-4.85,1-1.37,1.53-2.4,3.45-2.66,1.17-.16,2.81-1.1,1.23-3.18-.66-.86-.54-2.57-.29-3.8a5.11,5.11,0,0,0,0-2.72c-.7-2.6-.13-3.11,3-4.21.24-.08.36-.52.53-.79-4.2-.27,1.23-3.71-1.48-4.48a2.09,2.09,0,0,1,2.39-1.69c1.06.1,1.57-.32,1.4-1.39-.36-2.36.87-4.92-.93-7.12a1.53,1.53,0,0,1,0-1.44c1.48-2,.16-4.76,1.17-6.5,1.26-2.17.17-4.25.85-6.18,1.8-5.17,1.81-10.74,3.75-15.93.71-1.89.7-4.34,1.2-6.51,1.06-4.55,2.08-9.12,3.24-13.65.74-2.9,1.78-5.74,1.73-8.77a17.49,17.49,0,0,1,1-6.11c.56-1.61,2-3.2.18-5.25-.74-.86-.15-2.89-.11-4.39,0-.74-.32-1.93,1-1.71a2.62,2.62,0,0,1,1.83,1.39c.3,1.26,0,2.65.21,3.94.09.54.79,1,1.32,1.41.12.08.67-.45,1-.71a3.94,3.94,0,0,0,1.62-3.84c-.1-1.41-.35-2.93,1-4.1a17,17,0,0,0,1.67-2,10.3,10.3,0,0,1,1.29,2.45,5.46,5.46,0,0,1-.37,2.31c-.11.44-.56.85-.54,1.26.07,1.27-.13,3.28.53,3.65,1.39.78,2.18-1.07,3-2a12.94,12.94,0,0,0,2.4-4c.57-1.48,1.64-.62,2.45-.88.2.73.74,1.57.54,2.16a30.25,30.25,0,0,1-1.92,3.7,18,18,0,0,0-.7,1.95,6,6,0,0,0,2-.71,44.55,44.55,0,0,0,4.24-4.23,2.56,2.56,0,0,1,3.09-.68c2.17.7,2.36,1.32,1.33,3.52a37.52,37.52,0,0,1-8.67,12.37c-2,1.78-4.16,3.67-6.6,4.5-3.24,1.11-3.5,3.95-3.55,6-.1,4.91-1.69,9.63-1.27,14.59.19,2.32-.61,4.71-.9,7.08-.27,2.2.51,4.5-.94,6.63-.46.68-.06,2-.07,3,0,1.44.21,2.93-1,4.11-.1.1.16.56.26.86a3.33,3.33,0,0,0,.7-.29,9.13,9.13,0,0,1,1.89-1.46c1.17-.43,2.41-2.19,3.74-.09.06.09,1.39-.93,1.94-.77.7.21,1.2,1.09,1.8,1.67a.56.56,0,0,0,.43.14c4.16-1.49,6.72,2.34,10.21,3.2,2,.48,3.38,3,5.15,4.42,1.38,1.14,1.59,2.56,2,4.21.57,2.33,0,5.44,3.54,6.53,1.54.47,2.4,2.54,2.29,4.43a3.2,3.2,0,0,0,1.28,3c1,.76,1.11,1.58.08,2.41s-1.6,1.36-.22,2.52c1.62,1.37,1.5,1.52.21,3.49-.53.81-.08,2.12.4,1.69,1-.87,1.17,2.69,2.43,0,2.43-5.22,3.57-10.85,5.86-16.08,1.68-3.85,2.39-8,3.68-12a3.91,3.91,0,0,0,.29-1.37c-.28-4.49,1.68-8.24,4-11.86,2-3.15,3.66-6.5,5.53-9.72,3.72-6.42,7.89-12.61,10.81-19.5.57-1.35,1-2.34.09-3.44-4-4.7-7.07-10-10.39-15.2-2.13-3.3-4.4-6.51-6.53-9.8-.28-.43-.13-1.12-.18-1.69a6.1,6.1,0,0,1,1.69.29c1.37.68,3,1,3.23,3.08.11.79,1.27,1.49,2,2.11.31.24.88.16,1.33.22-.07-.35-.16-.71-.22-1.06-.33-2-1.74-3.77-1.35-5.93,0-.3.23-.77.4-.8a3.91,3.91,0,0,1,1.35.14c.13,0,.26.21.35.35,1.77,2.76,3.73,5.43,5.25,8.32a27.5,27.5,0,0,0,5.69,7.66A45.21,45.21,0,0,1,1951,1017c4.17,5,3.7,10.61,2,16.33-2.29,7.71-4.48,15.46-7,23.07a75.24,75.24,0,0,1-5.87,14.07c-1.49,2.55-3.16,5-4.56,7.61-2.33,4.35-3.91,12-4.6,16.61-1,6.75-2,13.55-6.27,19.41-1.85,2.52-2.11,6.06-3.53,9-.4.84.55,2.34.89,3.53a9.56,9.56,0,0,0,3.54,5.44,21.62,21.62,0,0,1,6.88,10.68c.39,1.46,1,3.24.46,4.16-1.94,3.4-.57,6.61.21,9.72a83.31,83.31,0,0,0,3.73,11.43c1.29,3.15,4.58,4.54,5.45,7.75,5.56,5.36,8.18,12.53,11.74,19.13a54.94,54.94,0,0,1,4.84,14c1.16,5.09,2.5,10.27,2.17,15.63a15.91,15.91,0,0,1-.92,5.63c-.72,1.67,0,3.65-.93,5.62s-.7,4.34-1,6.53c-1,7-3.34,13.65-5.39,20.32-3.49,11.34-7.72,22.45-11.51,33.7-1,3-1.54,6-2.26,9.07-.61,2.57-2.53,4.71-2.06,7.68.42,2.7-1.46,5.21-1,8.09.22,1.44-.67,3-.87,4.57s.31,3-1,4.08c.72,3-1.06,5.66-1.06,8.59a25.67,25.67,0,0,1-.93,4.58c-.29,1.54.68,3.35-1,4.6-.08.06,0,.33,0,.49.76,3.47-1.19,6.65-1,10.08s-.49,6.77.18,10a51.33,51.33,0,0,1,.89,8.61,3.27,3.27,0,0,0,.82,1.64c1.62,2.05,3.14,4.09,1.46,6.84.88,2.06,1.13,4.72,3.32,5.72,1.92.88,3.83,2.29,4.11,3.79s1.79,3.38.29,5.16c-.13.15.38.79.53,1.22.62,1.81.58,1.87-1.26,1.92C1939.15,1403,1938,1403,1936.81,1403Z" transform="translate(-1437 -944)"/></svg>