<svg id="Layer_1" data-name="Layer 1" xmlns="http://www.w3.org/2000/svg" viewBox="0 0 566.93 170.04"><title>Spotify_Powered_By_Logo</title><path class="cls-1" d="M88,1.28A83.74,83.74,0,1,0,171.74,85,83.75,83.75,0,0,0,88,1.28Zm38.4,120.78a5.22,5.22,0,0,1-7.18,1.74c-19.66-12-44.41-14.73-73.56-8.07a5.22,5.22,0,0,1-2.33-10.18c31.9-7.29,59.27-4.15,81.34,9.34A5.21,5.21,0,0,1,126.4,122.06Zm10.25-22.8a6.53,6.53,0,0,1-9,2.15c-22.51-13.83-56.82-17.84-83.45-9.76a6.53,6.53,0,1,1-3.79-12.49c30.41-9.23,68.22-4.76,94.07,11.12A6.53,6.53,0,0,1,136.65,99.26Zm.88-23.74c-27-16-71.52-17.51-97.29-9.69a7.83,7.83,0,0,1-4.54-15c29.58-9,78.75-7.24,109.83,11.21a7.83,7.83,0,0,1-8,13.47Z"/><path class="cls-1" d="M232.09,100.59c-14.46-3.45-17-5.87-17-11,0-4.8,4.52-8,11.24-8,6.52,0,13,2.45,19.77,7.51a1,1,0,0,0,1.34-.22l7.06-10a1,1,0,0,0-.18-1.29A42.74,42.74,0,0,0,226.52,68C210.91,68,200,77.4,200,90.81c0,14.37,9.41,19.46,25.66,23.39,13.84,3.19,16.18,5.86,16.18,10.63,0,5.29-4.73,8.58-12.32,8.58-8.44,0-15.33-2.84-23-9.51a1,1,0,0,0-.69-.23.91.91,0,0,0-.65.34l-7.92,9.42a.94.94,0,0,0,.09,1.31A47.19,47.19,0,0,0,229.2,147c16.82,0,27.69-9.19,27.69-23.42C256.89,111.52,249.71,104.87,232.09,100.59Z"/><path class="cls-1" d="M295,86.33c-7.29,0-13.27,2.87-18.21,8.75V88.46a1,1,0,0,0-.94-.95H262.85a1,1,0,0,0-.94.95v73.6a1,1,0,0,0,.94.95H275.8a1,1,0,0,0,.94-.95V138.83A23.29,23.29,0,0,0,295,147.07c13.55,0,27.27-10.43,27.27-30.37S308.5,86.33,295,86.33Zm12.21,30.37c0,10.15-6.25,17.24-15.21,17.24s-15.53-7.41-15.53-17.24S283.1,99.46,292,99.46,307.16,106.71,307.16,116.7Z"/><path class="cls-1" d="M357.37,86.33c-17.45,0-31.12,13.43-31.12,30.59,0,17,13.58,30.26,30.91,30.26,17.51,0,31.22-13.39,31.22-30.48S374.76,86.33,357.37,86.33Zm0,47.72c-9.28,0-16.28-7.46-16.28-17.35s6.76-17.13,16.07-17.13,16.38,7.45,16.38,17.35S366.74,134.05,357.37,134.05Z"/><path class="cls-1" d="M425.64,87.51H411.4V72.94a1,1,0,0,0-.95-.94H397.51a.94.94,0,0,0-.95.94V87.51h-6.23a1,1,0,0,0-.94.95V99.59a.94.94,0,0,0,.94.94h6.23v28.8c0,11.63,5.79,17.53,17.21,17.53a23.62,23.62,0,0,0,12.13-3,1,1,0,0,0,.48-.82V132.43a1,1,0,0,0-.45-.81.94.94,0,0,0-.93,0,16.35,16.35,0,0,1-7.6,1.83c-4.15,0-6-1.89-6-6.11V100.53h14.24a.94.94,0,0,0,.95-.94V88.46A1,1,0,0,0,425.64,87.51Z"/><path class="cls-1" d="M475.28,87.57V85.78c0-5.27,2-7.61,6.55-7.61a21.86,21.86,0,0,1,7.29,1.34.92.92,0,0,0,.85-.13.94.94,0,0,0,.4-.77V67.7a1,1,0,0,0-.67-.91,35.73,35.73,0,0,0-10.77-1.54c-11.95,0-18.27,6.73-18.27,19.46v2.74h-6.22a1,1,0,0,0-.95,1V99.59a.94.94,0,0,0,.95.94h6.22v44.41a.94.94,0,0,0,.94.95h12.95a1,1,0,0,0,.95-.95V100.53h12.08l18.52,44.4c-2.1,4.67-4.17,5.6-7,5.6a15,15,0,0,1-7.14-2,.93.93,0,0,0-1.31.44l-4.39,9.63a.93.93,0,0,0,.41,1.22,27.25,27.25,0,0,0,13.82,3.54c9.56,0,14.85-4.45,19.5-16.43l22.47-58a1,1,0,0,0-.1-.88,1,1,0,0,0-.78-.41H528.11a1,1,0,0,0-.9.63l-13.8,39.44L498.28,88.18a.94.94,0,0,0-.88-.61Z"/><rect class="cls-1" x="432.61" y="87.51" width="14.84" height="58.38" rx="0.95"/><path class="cls-1" d="M440.1,61.79a9.29,9.29,0,1,0,9.28,9.28A9.28,9.28,0,0,0,440.1,61.79Z"/><path class="cls-1" d="M553.52,105.67a9.14,9.14,0,1,1,9.16-9.16A9.16,9.16,0,0,1,553.52,105.67Zm.05-17.36a8.23,8.23,0,1,0,8.15,8.2A8.15,8.15,0,0,0,553.57,88.31Zm2,9.13,2.57,3.61H556l-2.32-3.31h-2v3.31h-1.82V91.49h4.26c2.22,0,3.69,1.14,3.69,3.05A2.85,2.85,0,0,1,555.59,97.44Zm-1.54-4.31h-2.37v3h2.37c1.18,0,1.89-.58,1.89-1.51S555.23,93.13,554.05,93.13Z"/><path class="cls-2" d="M208.74,28.78V39.85h-5.19V10H215a11.53,11.53,0,0,1,7.94,2.61,8.75,8.75,0,0,1,3,6.9A8.44,8.44,0,0,1,223,26.33q-2.88,2.45-8.06,2.45Zm0-4.19H215a6.13,6.13,0,0,0,4.22-1.3,4.79,4.79,0,0,0,1.46-3.76,5.15,5.15,0,0,0-1.48-3.87,5.72,5.72,0,0,0-4.06-1.49h-6.38Z"/><path class="cls-2" d="M228.72,28.55A13.15,13.15,0,0,1,230,22.67a9.46,9.46,0,0,1,3.63-4,10.29,10.29,0,0,1,5.37-1.4,9.66,9.66,0,0,1,7.29,2.89,11.37,11.37,0,0,1,3,7.67l0,1.17a13.25,13.25,0,0,1-1.26,5.87,9.33,9.33,0,0,1-3.61,4,10.28,10.28,0,0,1-5.43,1.42,9.6,9.6,0,0,1-7.51-3.13,12,12,0,0,1-2.82-8.33Zm5,.43a8.89,8.89,0,0,0,1.42,5.36,4.93,4.93,0,0,0,7.86,0,9.83,9.83,0,0,0,1.4-5.76,8.84,8.84,0,0,0-1.44-5.33,4.62,4.62,0,0,0-3.93-2,4.53,4.53,0,0,0-3.87,1.94A9.65,9.65,0,0,0,233.7,29Z"/><path class="cls-2" d="M273.05,33l3.53-15.32h4.86l-6.05,22.19h-4.1l-4.76-15.24-4.67,15.24h-4.1l-6.07-22.19h4.86l3.58,15.16,4.56-15.16h3.75Z"/><path class="cls-2" d="M294.55,40.26a10.3,10.3,0,0,1-7.68-3,10.8,10.8,0,0,1-2.95-8v-.62a13.22,13.22,0,0,1,1.29-5.93,9.69,9.69,0,0,1,3.59-4.07A9.54,9.54,0,0,1,294,17.25a8.72,8.72,0,0,1,7,2.89c1.64,1.93,2.47,4.66,2.47,8.18v2H289a6.65,6.65,0,0,0,1.83,4.35,5.52,5.52,0,0,0,4.05,1.6,6.73,6.73,0,0,0,5.58-2.77l2.69,2.57a9,9,0,0,1-3.56,3.08A11.15,11.15,0,0,1,294.55,40.26Zm-.6-19a4.21,4.21,0,0,0-3.31,1.43,7.44,7.44,0,0,0-1.61,4h9.5v-.37a6.08,6.08,0,0,0-1.34-3.78A4.18,4.18,0,0,0,294,21.25Z"/><path class="cls-2" d="M318.93,22.21a12.27,12.27,0,0,0-2-.16q-3.42,0-4.61,2.62V39.85h-5V17.66h4.76l.12,2.48a5.62,5.62,0,0,1,5-2.89,4.65,4.65,0,0,1,1.76.29Z"/><path class="cls-2" d="M331.46,40.26a10.3,10.3,0,0,1-7.68-3,10.84,10.84,0,0,1-2.94-8v-.62a13.21,13.21,0,0,1,1.28-5.93,9.65,9.65,0,0,1,3.6-4.07,9.52,9.52,0,0,1,5.17-1.46,8.7,8.7,0,0,1,7,2.89q2.48,2.89,2.47,8.18v2h-14.5a6.61,6.61,0,0,0,1.84,4.35,5.49,5.49,0,0,0,4.05,1.6,6.75,6.75,0,0,0,5.58-2.77L340,36.08a9,9,0,0,1-3.56,3.08A11.12,11.12,0,0,1,331.46,40.26Zm-.59-19a4.24,4.24,0,0,0-3.32,1.43,7.52,7.52,0,0,0-1.61,4h9.5v-.37a6.08,6.08,0,0,0-1.33-3.78A4.18,4.18,0,0,0,330.87,21.25Z"/><path class="cls-2" d="M343.29,28.59a13.21,13.21,0,0,1,2.38-8.23,7.63,7.63,0,0,1,6.38-3.11,7.24,7.24,0,0,1,5.7,2.46V8.35h5v31.5h-4.52l-.24-2.3a7.33,7.33,0,0,1-6,2.71,7.59,7.59,0,0,1-6.31-3.14C344.1,35,343.29,32.19,343.29,28.59Zm5,.43a9.2,9.2,0,0,0,1.3,5.28,4.21,4.21,0,0,0,3.7,1.9,4.7,4.7,0,0,0,4.47-2.73V24a4.63,4.63,0,0,0-4.43-2.67,4.25,4.25,0,0,0-3.73,1.92A10.24,10.24,0,0,0,348.28,29Z"/><path class="cls-2" d="M397.87,29a13.28,13.28,0,0,1-2.31,8.22,7.52,7.52,0,0,1-6.35,3.06,7.24,7.24,0,0,1-6.07-2.81l-.25,2.4h-4.51V8.35h5V19.79a7.22,7.22,0,0,1,5.8-2.54,7.63,7.63,0,0,1,6.38,3c1.54,2,2.32,4.82,2.32,8.43Zm-5-.43a9.37,9.37,0,0,0-1.27-5.41,4.23,4.23,0,0,0-3.69-1.81,4.61,4.61,0,0,0-4.55,2.83v9.15A4.66,4.66,0,0,0,388,36.2a4.21,4.21,0,0,0,3.61-1.74,9.15,9.15,0,0,0,1.31-5.27Z"/><path class="cls-2" d="M409.58,32.71l4.51-15h5.31l-8.82,25.55q-2,5.61-6.89,5.6a8.78,8.78,0,0,1-2.4-.37V44.57l.94.06a4.81,4.81,0,0,0,2.84-.69,4.52,4.52,0,0,0,1.51-2.3l.72-1.91-7.79-22.07h5.37Z"/></svg>
